<svg xmlns="http://www.w3.org/2000/svg" width="1200" height="630" viewBox="0 0 1200 630">
  <defs><filter id="s"><feDropShadow dx="0" dy="3" stdDeviation="5" flood-opacity=".13"/></filter><marker id="p" markerUnits="userSpaceOnUse" markerWidth="9" markerHeight="9" refX="8" refY="4.5" orient="auto"><path d="M0 0L9 4.5L0 9Z" fill="#7c3aed"/></marker></defs>
  <rect width="1200" height="630" fill="#f8fafc"/>
  <text x="600" y="50" text-anchor="middle" font-family="Arial" font-size="34" font-weight="800" fill="#08285f">BGP — RELIER LES RÉSEAUX QUI COMPOSENT INTERNET</text>
  <text x="600" y="82" text-anchor="middle" font-family="Arial" font-size="17" fill="#526581">Chaque système autonome annonce les préfixes qu'il peut atteindre</text>
  <g font-family="Arial" text-anchor="middle">
    <rect x="35" y="145" width="310" height="315" rx="28" fill="#eff6ff" stroke="#2563eb" stroke-width="3" stroke-dasharray="9 6" filter="url(#s)"/><text x="190" y="185" font-size="19" font-weight="800" fill="#123c8c">AS 64510 — ENTREPRISE</text><circle cx="190" cy="290" r="62" fill="#dbeafe" stroke="#2563eb" stroke-width="3"/><text x="190" y="285" font-size="20" font-weight="700" fill="#123c8c">ROUTEUR</text><text x="190" y="312" font-size="14" fill="#526581">BGP de bordure</text><rect x="75" y="390" width="230" height="45" rx="10" fill="#fff" stroke="#93c5fd"/><text x="190" y="419" font-size="16" font-weight="700" fill="#123c8c">annonce 203.0.113.0/24</text>
    <rect x="445" y="125" width="310" height="355" rx="28" fill="#f5f3ff" stroke="#7c3aed" stroke-width="3" stroke-dasharray="9 6" filter="url(#s)"/><text x="600" y="165" font-size="19" font-weight="800" fill="#5620bb">AS 64520 — OPÉRATEUR</text><circle cx="600" cy="290" r="62" fill="#ede9fe" stroke="#7c3aed" stroke-width="3"/><text x="600" y="285" font-size="20" font-weight="700" fill="#5620bb">ROUTEUR</text><text x="600" y="312" font-size="14" fill="#526581">transit</text><rect x="485" y="390" width="230" height="55" rx="10" fill="#fff" stroke="#c4b5fd"/><text x="600" y="414" font-size="15" font-weight="700" fill="#5620bb">reçoit et propage</text><text x="600" y="435" font-size="15" fill="#526581">selon sa politique</text>
    <rect x="855" y="145" width="310" height="315" rx="28" fill="#ecfdf5" stroke="#10b981" stroke-width="3" stroke-dasharray="9 6" filter="url(#s)"/><text x="1010" y="185" font-size="19" font-weight="800" fill="#06633f">AS 64530 — HÉBERGEUR</text><circle cx="1010" cy="290" r="62" fill="#d1fae5" stroke="#10b981" stroke-width="3"/><text x="1010" y="285" font-size="20" font-weight="700" fill="#06633f">ROUTEUR</text><text x="1010" y="312" font-size="14" fill="#526581">BGP de bordure</text><rect x="895" y="390" width="230" height="45" rx="10" fill="#fff" stroke="#6ee7b7"/><text x="1010" y="419" font-size="16" font-weight="700" fill="#06633f">annonce 2001:db8::/32</text>
    <path d="M252 290H437M663 290H847" stroke="#7c3aed" stroke-width="5" marker-end="url(#p)"/><text x="345" y="268" font-size="16" font-weight="700" fill="#5620bb">eBGP</text><text x="755" y="268" font-size="16" font-weight="700" fill="#5620bb">eBGP</text>
  </g>
  <rect x="95" y="525" width="1010" height="62" rx="12" fill="#fff7ed" stroke="#fdba74"/><text x="600" y="551" text-anchor="middle" font-family="Arial" font-size="17" font-weight="700" fill="#9a3f00">BGP ne choisit pas seulement selon la distance</text><text x="600" y="575" text-anchor="middle" font-family="Arial" font-size="15" fill="#526581">les politiques, les relations commerciales et les attributs du chemin interviennent</text>
</svg>
