<svg xmlns="http://www.w3.org/2000/svg" width="1200" height="680" viewBox="0 0 1200 680"><defs><filter id="s"><feDropShadow dy="3" stdDeviation="5" flood-opacity=".13"/></filter><marker id="a" markerWidth="9" markerHeight="9" refX="8" refY="4.5" orient="auto"><path d="M0 0L9 4.5L0 9Z" fill="#2563eb"/></marker></defs><rect width="1200" height="680" fill="#f8fafc"/><text x="600" y="50" text-anchor="middle" font-family="Arial" font-size="33" font-weight="800" fill="#08285f">ACCÈS REFUSÉ — SUIVRE LE FLUX ET LES DÉCISIONS</text><text x="600" y="82" text-anchor="middle" font-family="Arial" font-size="17" fill="#526581">Décrire précisément avant de modifier la politique</text>
<rect x="30" y="120" width="1140" height="230" rx="16" fill="#fff" stroke="#93c5fd" filter="url(#s)"/><g font-family="Arial" text-anchor="middle">
<rect x="65" y="175" width="170" height="100" rx="12" fill="#dbeafe" stroke="#2563eb"/><text x="150" y="207" font-size="17" font-weight="700" fill="#123c8c">1. SERVICE</text><text x="150" y="238" font-size="13" fill="#526581">écoute correcte ?</text>
<rect x="290" y="175" width="170" height="100" rx="12" fill="#fff7ed" stroke="#f59e0b"/><text x="375" y="207" font-size="17" font-weight="700" fill="#9a3f00">2. ROUTE</text><text x="375" y="238" font-size="13" fill="#526581">aller et retour ?</text>
<rect x="515" y="175" width="170" height="100" rx="12" fill="#ede9fe" stroke="#7c3aed"/><text x="600" y="207" font-size="17" font-weight="700" fill="#5620bb">3. NAT</text><text x="600" y="238" font-size="13" fill="#526581">avant / après ?</text>
<rect x="740" y="175" width="170" height="100" rx="12" fill="#d1fae5" stroke="#10b981"/><text x="825" y="207" font-size="17" font-weight="700" fill="#06633f">4. RÈGLE</text><text x="825" y="238" font-size="13" fill="#526581">ordre et objets ?</text>
<rect x="965" y="175" width="170" height="100" rx="12" fill="#e0f2fe" stroke="#0284c7"/><text x="1050" y="207" font-size="17" font-weight="700" fill="#075985">5. JOURNAL</text><text x="1050" y="238" font-size="13" fill="#526581">action observée ?</text></g><path d="M235 225H281M460 225H506M685 225H731M910 225H956" stroke="#2563eb" stroke-width="3" marker-end="url(#a)"/>
<rect x="30" y="415" width="550" height="195" rx="16" fill="#fff" stroke="#c4b5fd" filter="url(#s)"/><rect x="48" y="397" width="200" height="40" rx="11" fill="#7c3aed"/><text x="148" y="424" text-anchor="middle" font-family="Arial" font-size="17" font-weight="700" fill="#fff">FLUX ATTENDU</text><g font-family="Arial"><text x="80" y="475" font-size="15" fill="#334155">Source</text><text x="230" y="475" font-size="15" font-weight="700" fill="#5620bb">10.10.10.25</text><text x="80" y="510" font-size="15" fill="#334155">Destination</text><text x="230" y="510" font-size="15" font-weight="700" fill="#5620bb">10.20.0.10</text><text x="80" y="545" font-size="15" fill="#334155">Service</text><text x="230" y="545" font-size="15" font-weight="700" fill="#5620bb">TCP/443</text><text x="80" y="580" font-size="15" fill="#334155">Zones</text><text x="230" y="580" font-size="15" font-weight="700" fill="#5620bb">USERS → SERVEURS</text></g>
<rect x="620" y="415" width="550" height="195" rx="16" fill="#fff" stroke="#6ee7b7" filter="url(#s)"/><rect x="638" y="397" width="200" height="40" rx="11" fill="#0f8a5f"/><text x="738" y="424" text-anchor="middle" font-family="Arial" font-size="17" font-weight="700" fill="#fff">BONNE MÉTHODE</text><g font-family="Arial"><text x="670" y="475" font-size="15" fill="#334155">• capturer à l'entrée et à la sortie</text><text x="670" y="510" font-size="15" fill="#334155">• identifier la règle réellement appliquée</text><text x="670" y="545" font-size="15" fill="#334155">• vérifier la route retour et l'hôte</text><text x="670" y="580" font-size="15" fill="#334155">• tester une modification ciblée</text></g>
<rect x="180" y="635" width="840" height="34" rx="9" fill="#fee2e2" stroke="#ef4444"/><text x="600" y="658" text-anchor="middle" font-family="Arial" font-size="15" font-weight="700" fill="#991b1b">Désactiver tout le pare-feu masque le diagnostic et augmente l'exposition</text></svg>
