<svg xmlns="http://www.w3.org/2000/svg" width="1200" height="640" viewBox="0 0 1200 640">
<defs><filter id="s"><feDropShadow dy="3" stdDeviation="5" flood-opacity=".13"/></filter><marker id="a" markerWidth="9" markerHeight="9" refX="8" refY="4.5" orient="auto"><path d="M0 0L9 4.5L0 9Z" fill="#f59e0b"/></marker></defs><rect width="1200" height="640" fill="#f8fafc"/>
<text x="600" y="50" text-anchor="middle" font-family="Arial" font-size="33" font-weight="800" fill="#08285f">NAT / PAT — MODIFIER LES ADRESSES, PAS LA POLITIQUE</text><text x="600" y="82" text-anchor="middle" font-family="Arial" font-size="17" fill="#526581">La table de traduction permet de retrouver chaque flux</text>
<rect x="30" y="120" width="1140" height="270" rx="16" fill="#fff" stroke="#fdba74" filter="url(#s)"/><rect x="48" y="102" width="210" height="40" rx="11" fill="#f59e0b"/><text x="153" y="129" text-anchor="middle" font-family="Arial" font-size="17" font-weight="700" fill="#fff">PAT SORTANT</text>
<g font-family="Arial" text-anchor="middle"><rect x="70" y="165" width="280" height="65" rx="10" fill="#dbeafe" stroke="#2563eb"/><text x="210" y="192" font-size="16" font-weight="700" fill="#123c8c">192.168.1.10:51500</text><text x="210" y="215" font-size="13" fill="#526581">PC A</text>
<rect x="70" y="260" width="280" height="65" rx="10" fill="#ede9fe" stroke="#7c3aed"/><text x="210" y="287" font-size="16" font-weight="700" fill="#5620bb">192.168.1.11:51500</text><text x="210" y="310" font-size="13" fill="#526581">PC B</text>
<rect x="475" y="170" width="250" height="150" rx="15" fill="#334155"/><text x="600" y="213" font-size="19" font-weight="700" fill="#fff">ROUTEUR NAT</text><text x="600" y="245" font-size="14" fill="#cbd5e1">table de correspondance</text><text x="600" y="278" font-size="14" font-weight="700" fill="#fff">IP privée:port ↔ port public</text>
<rect x="850" y="190" width="280" height="100" rx="13" fill="#d1fae5" stroke="#10b981"/><text x="990" y="225" font-size="17" font-weight="700" fill="#06633f">198.51.100.20</text><text x="990" y="255" font-size="15" fill="#526581">:61001 et :61002</text></g>
<path d="M360 198H465M360 292H465M735 240H840" stroke="#f59e0b" stroke-width="4" marker-end="url(#a)"/>
<rect x="30" y="445" width="550" height="125" rx="16" fill="#fff" stroke="#c4b5fd" filter="url(#s)"/><rect x="48" y="427" width="160" height="38" rx="10" fill="#7c3aed"/><text x="128" y="453" text-anchor="middle" font-family="Arial" font-size="16" font-weight="700" fill="#fff">DIRECTION</text>
<text x="305" y="495" text-anchor="middle" font-family="Arial" font-size="18" font-weight="700" fill="#5620bb">SNAT : source modifiée</text><text x="305" y="530" text-anchor="middle" font-family="Arial" font-size="18" font-weight="700" fill="#9a3f00">DNAT : destination modifiée</text>
<rect x="620" y="445" width="550" height="125" rx="16" fill="#fff" stroke="#fecaca" filter="url(#s)"/><rect x="638" y="427" width="180" height="38" rx="10" fill="#ef4444"/><text x="728" y="453" text-anchor="middle" font-family="Arial" font-size="16" font-weight="700" fill="#fff">SÉCURITÉ</text><text x="895" y="500" text-anchor="middle" font-family="Arial" font-size="18" font-weight="700" fill="#991b1b">Traduire ≠ autoriser</text><text x="895" y="532" text-anchor="middle" font-family="Arial" font-size="14" fill="#526581">le pare-feu exprime la politique</text>
<text x="600" y="615" text-anchor="middle" font-family="Arial" font-size="16" font-weight="700" fill="#06633f">PAT partage une adresse publique ; DNAT peut publier un service interne</text></svg>
